<svg xmlns="http://www.w3.org/2000/svg" viewBox="0 0 64 64">
  <style>
    .tile { fill: #f7f9fd; }
    .flask, .route, .arrow { fill: none; stroke: #3157f5; stroke-linecap: round; stroke-linejoin: round; }
    .liquid { fill: #08bfe0; }
    .node { fill: #3157f5; }
    .bubble { fill: #ffffff; }
    @media (prefers-color-scheme: dark) {
      .tile { fill: #141928; }
      .flask, .route, .arrow { stroke: #8aa2ff; }
      .liquid { fill: #27d2ed; }
      .node { fill: #8aa2ff; }
    }
  </style>
  <rect class="tile" x="2" y="2" width="60" height="60" rx="14"/>
  <path class="flask" stroke-width="3" d="M27 12h12M29 12v12L19 42.2A7 7 0 0 0 25.2 52h15.6a7 7 0 0 0 6.2-9.8L37 24V12"/>
  <path class="liquid" d="M22.6 41c5.4-2.4 9 2.7 14 .3 3-1.5 5.4-.6 7.5.7l2 3.7A4.6 4.6 0 0 1 42 52H25a4.6 4.6 0 0 1-4.1-6.3l1.7-4.7Z"/>
  <path class="route" stroke-width="2.8" d="M9 22h10l4 5h5M9 34h10"/>
  <circle class="node" cx="9" cy="22" r="3"/>
  <circle class="node" cx="9" cy="34" r="3"/>
  <circle class="bubble" cx="33" cy="37" r="2"/>
  <circle class="bubble" cx="37.5" cy="32" r="1.5"/>
  <path class="arrow" stroke-width="2.8" d="m48 23 7 7-7 7m6.5-7H43"/>
</svg>
